<svg id="Calque_1" data-name="Calque 1" xmlns="http://www.w3.org/2000/svg" viewBox="0 0 290.95 85.51"><defs><style>.cls-1{fill:#fff;stroke:#000;stroke-miterlimit:10;}</style></defs><path class="cls-1" d="M676.18-75l6.35-2.7c2.22-1,4.48-1.94,6.76-3s4.55-2.06,6.81-3.11,4.44-2.1,6.55-3.14S706.73-89,708.59-90s3.52-2,5-2.92a4.47,4.47,0,0,1,1.56,1.44,3,3,0,0,1,.52,1.54,3.41,3.41,0,0,1-.15,1,2.86,2.86,0,0,1-.65,1,9,9,0,0,1-1.48,1.2,28.7,28.7,0,0,1-2.67,1.53q-1.68.88-4.19,2t-6,2.66Q697-79,692.29-77.1t-10.72,4.34q5.83,2.43,10.35,4.34c3,1.28,5.66,2.42,7.94,3.43s4.22,1.9,5.82,2.66,3,1.43,4,2,1.95,1.1,2.58,1.53a8.88,8.88,0,0,1,1.44,1.2,2.79,2.79,0,0,1,.62,1,3.54,3.54,0,0,1,.13,1A2.94,2.94,0,0,1,714-54a4.25,4.25,0,0,1-1.55,1.44q-2.13-1.4-4.86-2.91t-5.79-3.07c-2-1-4.17-2.08-6.39-3.13s-4.42-2.08-6.65-3.09-4.41-2-6.57-3L676-70.51Z" transform="translate(-675.49 133.49)"/><path class="cls-1" d="M892.39-49.19q2.15-8.91,4.14-17.23t3.8-15.84q1.81-7.5,3.43-14.07c1.07-4.38,2.06-8.38,2.94-12s1.69-6.78,2.39-9.53,1.29-5,1.76-6.74a32.62,32.62,0,0,1,1.3-3.89,11.23,11.23,0,0,1,1.5-2.61,5.13,5.13,0,0,1,1.81-1.46,5.32,5.32,0,0,1,2.23-.45,12,12,0,0,1,3.41.61l.12.27q-3.32,7.41-6.4,16.41t-6.15,19.51q-3.06,10.5-6.23,22.43t-6.67,25.2Z" transform="translate(-675.49 133.49)"/><path class="cls-1" d="M965.75-79.25c-2,.87-4.14,1.78-6.36,2.75s-4.47,2-6.74,3-4.54,2.06-6.81,3.1-4.46,2.08-6.55,3.12-4.07,2.07-5.94,3.07-3.54,2-5,2.9a4.37,4.37,0,0,1-1.56-1.44,3,3,0,0,1-.51-1.53,3.42,3.42,0,0,1,.14-1,2.85,2.85,0,0,1,.66-1,8.21,8.21,0,0,1,1.48-1.2c.65-.43,1.54-.94,2.66-1.53s2.53-1.26,4.2-2,3.67-1.64,6-2.66,5.09-2.15,8.21-3.43,6.69-2.72,10.72-4.34Q954.52-84,950-85.87t-7.94-3.43q-3.42-1.52-5.82-2.66t-4-2a28,28,0,0,1-2.58-1.53,8.33,8.33,0,0,1-1.43-1.2,2.62,2.62,0,0,1-.63-1,3.51,3.51,0,0,1-.13-1,2.94,2.94,0,0,1,.52-1.54,4.43,4.43,0,0,1,1.55-1.44c1.43.93,3,1.9,4.85,2.92s3.73,2,5.77,3.08,4.18,2.09,6.39,3.14,4.43,2.09,6.65,3.11,4.41,2,6.58,3l6.17,2.7Z" transform="translate(-675.49 133.49)"/></svg>