<svg id="Calque_1" data-name="Calque 1" xmlns="http://www.w3.org/2000/svg" viewBox="0 0 244.26 130.58"><defs><style>.cls-1{stroke:#fff;stroke-miterlimit:10;}</style></defs><path class="cls-1" d="M842.7,468.07q-4.51,2.15-10.17,4.47t-12.07,4.73q-6.4,2.4-13.3,4.82t-13.84,4.77q-7,2.36-13.73,4.54t-12.91,4.15l-.36,6.94,12.49,4.21q6.6,2.22,13.36,4.54T805.69,516q6.73,2.41,13,4.79c4.15,1.59,8.07,3.15,11.76,4.71s7,3,9.87,4.47a8.37,8.37,0,0,0,3.16-2.21,3.84,3.84,0,0,0,1.06-2.36,4.29,4.29,0,0,0-.27-1.51,4.08,4.08,0,0,0-1.27-1.56,16.13,16.13,0,0,0-2.92-1.84c-1.28-.67-3-1.45-5.23-2.35s-4.94-1.94-8.19-3.1-7.19-2.52-11.82-4.08-10-3.3-16.14-5.26-13.13-4.17-21-6.66q12.27-3.72,21.79-6.66t16.67-5.26q7.15-2.33,12.25-4.08t8.51-3.09q3.43-1.35,5.42-2.36a16.47,16.47,0,0,0,3-1.84,4.2,4.2,0,0,0,1.32-1.58,4.11,4.11,0,0,0,.31-1.54,3.9,3.9,0,0,0-1.06-2.35A8.37,8.37,0,0,0,842.7,468.07Z" transform="translate(-765.8 -419.6)"/><path class="cls-1" d="M911.56,420.1a13.76,13.76,0,0,0-4.55.7,10.39,10.39,0,0,0-3.67,2.23,16.59,16.59,0,0,0-3,4,41.06,41.06,0,0,0-2.65,6q-1.44,4-3.58,10.34T889.23,458q-2.72,8.3-6,18.38t-7,21.58q-3.67,11.5-7.74,24.29t-8.39,26.43l6.86,1q7.1-20.36,13.54-38.66t12.67-34.41q6.22-16.12,12.49-29.93a259,259,0,0,1,13-25.17l-.24-.42A32.2,32.2,0,0,0,911.56,420.1Z" transform="translate(-765.8 -419.6)"/><path class="cls-1" d="M997,491.45q-6.6-2.19-13.37-4.54t-13.51-4.78q-6.74-2.42-13-4.82t-11.74-4.72q-5.5-2.34-9.84-4.47a8.34,8.34,0,0,0-3.16,2.21,3.85,3.85,0,0,0-1,2.35,4.25,4.25,0,0,0,.27,1.51,4,4,0,0,0,1.26,1.56,16.3,16.3,0,0,0,2.92,1.84c1.29.67,3,1.46,5.24,2.36s4.94,1.93,8.19,3.09,7.19,2.53,11.82,4.08,10,3.31,16.13,5.26,13.13,4.18,21,6.66q-12.29,3.73-21.79,6.66T959.77,511q-7.17,2.34-12.25,4.08c-3.39,1.16-6.23,2.2-8.52,3.1s-4.09,1.68-5.41,2.35a16.68,16.68,0,0,0-3,1.84,4.3,4.3,0,0,0-1.33,1.58,4.1,4.1,0,0,0-.3,1.54A3.81,3.81,0,0,0,930,527.8a8.27,8.27,0,0,0,3.16,2.21c3-1.42,6.41-2.91,10.2-4.44s7.81-3.11,12.07-4.71,8.68-3.2,13.3-4.8,9.23-3.18,13.84-4.75,9.18-3.08,13.69-4.56l12.91-4.22.36-6.93Z" transform="translate(-765.8 -419.6)"/></svg>